<?xml version="1.0" standalone="no"?>
<!DOCTYPE svg PUBLIC "-//W3C//DTD SVG 20010904//EN"
 "http://www.w3.org/TR/2001/REC-SVG-20010904/DTD/svg10.dtd">
<svg version="1.0" xmlns="http://www.w3.org/2000/svg"
 width="260.000000pt" height="260.000000pt" viewBox="0 0 260.000000 260.000000"
 preserveAspectRatio="xMidYMid meet">
<metadata>
Created by potrace 1.11, written by Peter Selinger 2001-2013
</metadata>
<g transform="translate(0.000000,260.000000) scale(0.100000,-0.100000)"
fill="#000000" stroke="none">
<path d="M0 1300 l0 -1300 1300 0 1300 0 0 1300 0 1300 -1300 0 -1300 0 0
-1300z m820 810 c182 -11 382 -34 408 -49 8 -5 -9 -12 -45 -20 -157 -35 -401
-130 -481 -187 -22 -17 -22 -16 3 27 13 24 27 63 31 87 9 63 -9 97 -69 127
-28 14 -47 25 -41 25 5 0 92 -5 194 -10z m374 -233 c-66 -68 -116 -132 -147
-185 l-24 -43 -5 55 c-3 41 -11 63 -29 82 -37 40 -58 48 -144 54 l-80 5 154
34 c157 34 312 61 320 54 3 -2 -18 -27 -45 -56z m112 -153 c-3 -9 -6 -30 -6
-48 l0 -32 -47 6 c-27 3 -75 2 -108 -2 -33 -3 -61 -5 -63 -3 -4 4 94 51 158
76 57 23 74 24 66 3z m-188 -420 c30 -21 52 -66 52 -107 0 -30 -4 -35 -35 -44
l-35 -11 0 44 c0 58 -28 89 -73 80 -17 -4 -36 -11 -42 -17 -6 -6 -10 -77 -10
-180 0 -162 1 -171 21 -187 12 -9 27 -27 33 -39 11 -21 9 -23 -14 -23 -46 0
-82 27 -100 74 -14 36 -16 72 -13 197 3 165 10 188 60 216 33 18 129 16 156
-3z m242 4 c0 -9 3 -8 10 2 7 11 11 8 21 -15 10 -25 13 -27 17 -11 3 17 6 14
18 -12 12 -29 10 -38 -17 -104 -16 -40 -33 -76 -37 -80 -4 -3 -18 2 -31 13
l-24 19 31 70 31 70 -70 0 -69 0 0 30 0 30 60 0 c41 0 60 -4 60 -12z m-190
-310 c0 -59 -5 -93 -18 -117 -37 -74 -62 -35 -53 82 6 68 10 81 31 98 14 10
28 19 33 19 4 0 7 -37 7 -82z m149 25 l22 -18 -25 -60 -24 -60 79 -3 79 -3 0
-29 0 -30 -115 0 -115 0 0 32 c0 33 59 188 71 188 4 0 16 -8 28 -17z"/>
</g>
</svg>
